<?xml version="1.0" standalone="no"?>
<!DOCTYPE svg PUBLIC "-//W3C//DTD SVG 20010904//EN"
 "http://www.w3.org/TR/2001/REC-SVG-20010904/DTD/svg10.dtd">
<svg version="1.0" xmlns="http://www.w3.org/2000/svg"
 width="400.000000pt" height="400.000000pt" viewBox="0 0 400.000000 400.000000"
 preserveAspectRatio="xMidYMid meet">
<metadata>
Created by potrace 1.14, written by Peter Selinger 2001-2017
</metadata>
<g transform="translate(0.000000,400.000000) scale(0.100000,-0.100000)"
fill="#000000" stroke="none">
<path d="M1877 3824 c-1 -1 -40 -5 -87 -9 -46 -3 -87 -8 -90 -10 -3 -2 -30 -6
-59 -10 -30 -3 -83 -13 -120 -21 -36 -8 -79 -17 -96 -20 -30 -6 -201 -61 -265
-86 -19 -8 -51 -24 -70 -36 -43 -27 -42 -27 -66 -1 -27 30 -62 45 -110 48 -35
2 -45 -2 -68 -29 -27 -33 -30 -43 -27 -100 2 -30 -2 -37 -29 -48 -62 -28 -77
-110 -34 -187 23 -42 24 -48 11 -63 -43 -48 -146 -282 -173 -392 -12 -52 -33
-153 -32 -158 0 -4 -1 -9 -2 -12 -22 -56 -19 -412 6 -552 6 -32 4 -38 -11 -38
-28 0 -128 -58 -149 -87 -29 -39 -31 -99 -6 -165 19 -52 24 -58 50 -58 26 0
58 29 45 41 -11 12 -14 67 -4 91 12 28 111 87 117 69 2 -5 -13 -30 -32 -56
-86 -111 -96 -310 -25 -485 26 -64 66 -129 91 -148 36 -27 39 -48 17 -104 -29
-71 -32 -118 -10 -146 18 -25 75 -40 86 -22 13 21 50 9 70 -22 41 -65 114 -89
184 -61 18 7 35 13 36 13 1 0 15 -18 29 -41 38 -57 70 -93 151 -172 77 -75
123 -101 158 -88 17 7 36 -2 93 -40 95 -65 200 -119 306 -157 48 -17 106 -43
128 -57 22 -14 41 -25 44 -25 2 0 25 -10 52 -22 57 -25 50 -23 134 -44 77 -19
322 -27 395 -13 28 5 62 12 77 14 15 3 37 9 50 14 13 5 26 9 31 10 41 6 157
55 235 98 272 151 445 430 436 703 -3 94 -10 131 -41 220 -15 42 -18 69 -13
115 5 53 10 65 46 100 87 87 134 220 149 424 2 30 9 57 16 61 6 4 11 27 11 51
-1 36 4 47 34 74 37 34 45 73 20 98 -13 12 -72 28 -156 42 -14 2 -55 4 -92 4
-60 1 -68 3 -68 20 0 39 -40 219 -70 314 -20 64 -20 70 -5 87 18 19 20 114 3
159 -7 19 -5 27 8 34 10 6 29 22 42 36 19 21 23 34 20 72 -3 39 1 50 25 75 48
50 82 132 81 193 -1 48 -5 58 -33 83 -29 26 -47 33 -77 29 -7 -1 -9 16 -6 48
4 55 -15 103 -50 122 -28 15 -77 18 -101 7 -15 -8 -17 -5 -12 29 10 73 -4 78
-215 88 -184 9 -210 12 -228 28 -21 18 -47 26 -102 32 -24 2 -60 7 -81 10 -40
6 -72 10 -154 21 -45 6 -412 13 -418 8z m1444 -1624 c17 -9 54 -66 47 -72 -2
-2 8 -18 21 -36 21 -30 23 -41 17 -105 -7 -86 -12 -116 -32 -185 -12 -43 -54
-133 -71 -152 -2 -2 -4 29 -3 70 2 95 -8 357 -15 390 -3 14 -7 42 -9 63 -4 40
7 47 45 27z"/>
</g>
</svg>
